<svg width="70" height="92" viewBox="0 0 70 92" fill="none" xmlns="http://www.w3.org/2000/svg">
<mask id="path-1-inside-1_42_285" fill="white">
<path d="M2.92897 64.0096C-0.976379 60.1042 -0.976249 53.7724 2.92926 49.8672L13.3307 39.4665C17.2359 35.5616 23.5978 35.5923 27.503 39.4972C31.4083 43.4022 37.801 43.4021 41.7061 39.4969C45.6114 35.5917 51.9736 35.5611 55.8789 39.4663L66.2798 49.8673C70.185 53.7725 70.1851 60.104 66.2799 64.0093L41.6758 88.614C37.7705 92.5194 31.4388 92.5194 27.5335 88.6141L2.92897 64.0096Z"/>
</mask>
<path d="M41.6758 88.614L45.9185 92.8566L41.6758 88.614ZM27.5335 88.6141L31.7762 84.3715L27.5335 88.6141ZM66.2798 49.8673L70.5225 45.6246L66.2798 49.8673ZM66.2799 64.0093L70.5226 68.2519L66.2799 64.0093ZM55.8789 39.4663L60.1215 35.2237L55.8789 39.4663ZM2.92898 64.0096L-1.31367 68.2522L2.92898 64.0096ZM2.92926 49.8672L7.17173 54.11L17.5732 43.7093L13.3307 39.4665L9.08828 35.2237L-1.31321 45.6243L2.92926 49.8672ZM55.8789 39.4663L51.6363 43.709L62.0372 54.1099L66.2798 49.8673L70.5225 45.6246L60.1215 35.2237L55.8789 39.4663ZM66.2799 64.0093L62.0372 59.7667L37.4331 84.3715L41.6758 88.614L45.9185 92.8566L70.5226 68.2519L66.2799 64.0093ZM27.5335 88.6141L31.7762 84.3715L7.17161 59.7669L2.92898 64.0096L-1.31367 68.2522L23.2909 92.8568L27.5335 88.6141ZM41.6758 88.614L37.4331 84.3715C35.871 85.9336 33.3383 85.9336 31.7762 84.3715L27.5335 88.6141L23.2909 92.8568C29.5393 99.1052 39.6701 99.1052 45.9185 92.8566L41.6758 88.614ZM66.2798 49.8673L62.0372 54.1099C63.5993 55.672 63.5993 58.2046 62.0372 59.7667L66.2799 64.0093L70.5226 68.2519C76.7709 62.0035 76.7708 51.8729 70.5225 45.6246L66.2798 49.8673ZM41.7061 39.4969L45.9488 43.7396C47.5348 42.1536 50.098 42.1707 51.6363 43.709L55.8789 39.4663L60.1215 35.2237C53.8493 28.9515 43.688 29.0298 37.4635 35.2543L41.7061 39.4969ZM27.503 39.4972L23.2605 43.74C29.5089 49.988 39.7005 49.9878 45.9488 43.7396L41.7061 39.4969L37.4635 35.2543C35.9015 36.8163 33.3076 36.8164 31.7455 35.2544L27.503 39.4972ZM13.3307 39.4665L17.5732 43.7093C19.1115 42.1712 21.6745 42.1541 23.2605 43.74L27.503 39.4972L31.7455 35.2544C25.5211 29.0304 15.3604 28.952 9.08828 35.2237L13.3307 39.4665ZM2.92926 49.8672L-1.31321 45.6243C-7.56202 51.8727 -7.56223 62.0036 -1.31367 68.2522L2.92898 64.0096L7.17161 59.7669C5.60948 58.2048 5.60953 55.672 7.17173 54.11L2.92926 49.8672Z" fill="#4F0000" mask="url(#path-1-inside-1_42_285)"/>
<mask id="path-3-inside-2_42_285" fill="white">
<path d="M66.2804 27.5335C70.1857 31.4388 70.1856 37.7707 66.2801 41.6759L55.8789 52.0763C51.9736 55.9813 45.6119 55.9509 41.7067 52.0458C37.8016 48.1406 31.4089 48.1412 27.5036 52.0462C23.5983 55.9513 17.2359 55.9821 13.3307 52.077L2.92954 41.6758C-0.975664 37.7706 -0.975707 31.439 2.92945 27.5338L27.5336 2.92902C31.4388 -0.976304 37.7705 -0.976348 41.6758 2.92893L66.2804 27.5335Z"/>
</mask>
<path d="M41.6758 2.92893L37.4332 7.17157L41.6758 2.92893ZM2.92954 41.6758L-1.3131 45.9185L2.92954 41.6758ZM13.3307 52.077L9.08807 56.3196V56.3196L13.3307 52.077ZM66.2801 41.6759L62.0376 37.4331L51.6364 47.8335L55.8789 52.0763L60.1213 56.3191L70.5226 45.9187L66.2801 41.6759ZM13.3307 52.077L17.5733 47.8343L7.17218 37.4332L2.92954 41.6758L-1.3131 45.9185L9.08807 56.3196L13.3307 52.077ZM2.92945 27.5338L7.17215 31.7764L31.7763 7.17161L27.5336 2.92902L23.2909 -1.31356L-1.31324 23.2912L2.92945 27.5338ZM41.6758 2.92893L37.4332 7.17157L62.0377 31.7761L66.2804 27.5335L70.523 23.2909L45.9185 -1.31371L41.6758 2.92893ZM27.5336 2.92902L31.7763 7.17161C33.3384 5.60948 35.8711 5.60946 37.4332 7.17157L41.6758 2.92893L45.9185 -1.31371C39.67 -7.56216 29.5393 -7.56208 23.2909 -1.31356L27.5336 2.92902ZM2.92954 41.6758L7.17218 37.4332C5.6101 35.8711 5.61008 33.3385 7.17215 31.7764L2.92945 27.5338L-1.31324 23.2912C-7.5615 29.5396 -7.56143 39.6701 -1.3131 45.9185L2.92954 41.6758ZM27.5036 52.0462L23.2611 47.8035C21.6748 49.3896 19.1113 49.3723 17.5733 47.8343L13.3307 52.077L9.08807 56.3196C15.3604 62.592 25.5218 62.5129 31.7461 56.289L27.5036 52.0462ZM41.7067 52.0458L45.9494 47.8031C39.7006 41.5543 29.509 41.556 23.2611 47.8035L27.5036 52.0462L31.7461 56.289C33.3087 54.7265 35.9026 54.7269 37.4641 56.2884L41.7067 52.0458ZM55.8789 52.0763L51.6364 47.8335C50.0978 49.372 47.535 49.3888 45.9494 47.8031L41.7067 52.0458L37.4641 56.2884C43.6887 62.513 53.8493 62.5906 60.1213 56.3191L55.8789 52.0763ZM66.2801 41.6759L70.5226 45.9187C76.7714 39.6704 76.7716 29.5394 70.523 23.2909L66.2804 27.5335L62.0377 31.7761C63.5999 33.3383 63.5998 35.871 62.0376 37.4331L66.2801 41.6759Z" fill="#4F0000" mask="url(#path-3-inside-2_42_285)"/>
</svg>
