<svg width="106" height="84" viewBox="0 0 106 84" fill="none" xmlns="http://www.w3.org/2000/svg">
<mask id="path-1-inside-1_40_30" fill="white">
<path d="M100.954 42.6277C106.421 48.095 106.421 56.9593 100.954 62.4267L83.8075 79.573C78.3402 85.0403 69.4759 85.0403 64.0085 79.573L62.4277 77.9921C56.9603 72.5248 48.096 72.5248 42.6287 77.9921L41.0468 79.574C35.5794 85.0413 26.7151 85.0413 21.2478 79.574L4.1005 62.4267C-1.36684 56.9593 -1.36683 48.095 4.10051 42.6277L42.6277 4.10051C48.095 -1.36683 56.9593 -1.36684 62.4267 4.1005L100.954 42.6277Z"/>
</mask>
<path d="M21.2478 79.574L17.0052 83.8166L21.2478 79.574ZM42.6287 77.9921L38.386 73.7495L42.6287 77.9921ZM83.8075 79.573L79.5649 75.3303L83.8075 79.573ZM100.954 62.4267L96.7112 58.184L100.954 62.4267ZM100.954 62.4267L96.7112 58.184L79.5649 75.3303L83.8075 79.573L88.0502 83.8156L105.197 66.6693L100.954 62.4267ZM64.0086 79.573L68.2512 75.3304L66.6703 73.7495L62.4277 77.9921L58.185 82.2347L59.7659 83.8156L64.0086 79.573ZM42.6287 77.9921L38.386 73.7495L36.8042 75.3313L41.0468 79.574L45.2894 83.8166L46.8713 82.2347L42.6287 77.9921ZM21.2478 79.574L25.4904 75.3313L8.34314 58.184L4.1005 62.4267L-0.142141 66.6693L17.0052 83.8166L21.2478 79.574ZM4.10051 42.6277L8.34315 46.8703L46.8703 8.34315L42.6277 4.10051L38.385 -0.142131L-0.142131 38.385L4.10051 42.6277ZM62.4267 4.1005L58.184 8.34314L96.7112 46.8703L100.954 42.6277L105.196 38.385L66.6693 -0.14214L62.4267 4.1005ZM42.6277 4.10051L46.8703 8.34315C49.9945 5.21895 55.0599 5.21895 58.184 8.34314L62.4267 4.1005L66.6693 -0.14214C58.8588 -7.95263 46.1955 -7.95261 38.385 -0.142131L42.6277 4.10051ZM4.1005 62.4267L8.34314 58.184C5.21895 55.0598 5.21895 49.9945 8.34315 46.8703L4.10051 42.6277L-0.142131 38.385C-7.95261 46.1955 -7.95263 58.8588 -0.142141 66.6693L4.1005 62.4267ZM41.0468 79.574L36.8042 75.3313C33.68 78.4555 28.6146 78.4555 25.4904 75.3313L21.2478 79.574L17.0052 83.8166C24.8157 91.6271 37.4789 91.6271 45.2894 83.8166L41.0468 79.574ZM62.4277 77.9921L66.6703 73.7495C58.8598 65.939 46.1965 65.939 38.386 73.7495L42.6287 77.9921L46.8713 82.2347C49.9955 79.1105 55.0608 79.1105 58.185 82.2347L62.4277 77.9921ZM83.8075 79.573L79.5649 75.3303C76.4407 78.4545 71.3754 78.4545 68.2512 75.3304L64.0086 79.573L59.7659 83.8156C67.5764 91.6261 80.2397 91.6261 88.0502 83.8156L83.8075 79.573ZM100.954 62.4267L105.197 66.6693C113.007 58.8588 113.007 46.1955 105.196 38.385L100.954 42.6277L96.7112 46.8703C99.8354 49.9945 99.8354 55.0598 96.7112 58.184L100.954 62.4267Z" fill="black" mask="url(#path-1-inside-1_40_30)"/>
</svg>
